<?xml version="1.0" standalone="no"?>
<!DOCTYPE svg PUBLIC "-//W3C//DTD SVG 20010904//EN"
 "http://www.w3.org/TR/2001/REC-SVG-20010904/DTD/svg10.dtd">
<svg version="1.0" xmlns="http://www.w3.org/2000/svg"
 width="512.000000pt" height="512.000000pt" viewBox="0 0 512.000000 512.000000"
 preserveAspectRatio="xMidYMid meet">
<metadata>
Created by potrace 1.11, written by Peter Selinger 2001-2013
</metadata>
<g transform="translate(0.000000,512.000000) scale(0.100000,-0.100000)"
fill="#000000" stroke="none">
<path d="M0 2560 l0 -2560 2560 0 2560 0 0 2560 0 2560 -2560 0 -2560 0 0
-2560z m2157 1769 c7 -1 10 -6 7 -11 -5 -7 10 -12 29 -9 4 0 6 -5 5 -11 -2 -7
3 -12 11 -10 12 3 12 1 1 -13 -19 -23 2 -44 25 -25 14 11 16 11 13 -1 -2 -8 3
-13 9 -12 7 2 12 -3 10 -10 -1 -6 4 -11 12 -9 11 2 12 0 3 -11 -7 -8 -9 -28
-5 -50 4 -24 2 -37 -6 -37 -6 0 -11 9 -11 20 0 11 -4 20 -10 20 -5 0 -10 7
-10 15 0 8 -4 15 -9 15 -6 0 0 -20 11 -44 16 -32 26 -42 40 -38 14 3 18 -2 19
-24 2 -25 2 -26 6 -6 3 13 0 28 -5 35 -12 15 -27 95 -15 84 9 -9 10 -14 12
-53 0 -14 5 -23 10 -20 5 3 9 -20 9 -52 l0 -59 -32 0 c-30 0 -32 3 -35 36 -1
20 -4 45 -6 56 -2 11 -4 26 -4 33 -1 7 -6 10 -11 7 -6 -4 -10 -3 -9 2 3 20 -2
34 -11 28 -6 -4 -9 -1 -8 7 2 7 -3 12 -11 10 -12 -3 -12 -1 -1 13 11 13 10 19
-8 35 -12 11 -26 20 -32 20 -5 0 -10 5 -10 10 0 6 -9 10 -20 10 -11 0 -20 7
-20 15 0 17 45 21 55 5 3 -5 11 -10 18 -10 6 0 1 7 -11 16 -27 19 -194 31
-231 17 -15 -6 7 -8 68 -5 63 3 91 1 91 -7 0 -7 -26 -11 -75 -11 -43 0 -75 -4
-75 -10 0 -5 -9 -10 -20 -10 -11 0 -20 -4 -20 -10 0 -5 -5 -10 -11 -10 -6 0
-17 -7 -25 -15 -16 -16 -5 -22 12 -6 69 67 218 67 287 1 5 -4 3 -11 -4 -15 -8
-5 -10 -4 -5 3 7 11 -6 17 -27 13 -5 -1 -6 3 -2 9 5 9 -15 15 -38 11 -5 -1 -6
3 -2 9 4 6 -19 10 -65 10 -46 0 -69 -4 -65 -10 4 -6 3 -10 -2 -9 -23 4 -43 -2
-38 -11 4 -6 3 -10 -2 -9 -21 4 -34 -2 -27 -13 4 -7 3 -8 -4 -4 -7 4 -12 2
-12 -3 0 -6 -6 -10 -12 -8 -7 1 -12 -4 -10 -10 1 -7 -3 -12 -10 -10 -7 1 -13
-4 -14 -10 -1 -7 -3 -16 -4 -20 -1 -5 -2 -11 -2 -14 1 -4 -24 -7 -56 -7 -37 0
-56 -4 -55 -11 2 -6 0 -10 -5 -10 -25 4 -52 -2 -47 -11 4 -6 3 -10 -2 -9 -19
3 -34 -2 -29 -9 3 -5 0 -9 -7 -10 -7 0 -25 -3 -42 -6 -22 -5 -26 -4 -15 4 8 5
21 10 28 10 8 0 26 8 40 19 15 10 36 20 47 22 25 5 32 37 11 45 -16 6 -43 -5
-116 -46 -21 -12 -28 -20 -17 -20 9 0 17 -4 17 -10 0 -5 -7 -10 -15 -10 -18 0
-19 -12 -2 -29 10 -10 9 -12 -3 -9 -8 2 -14 -3 -12 -10 1 -6 -4 -11 -10 -10
-7 2 -12 -3 -10 -11 3 -12 1 -12 -13 -1 -23 19 -44 -2 -25 -25 11 -14 11 -16
-1 -13 -8 2 -13 -3 -11 -11 2 -11 0 -12 -11 -3 -29 25 -70 -16 -45 -45 9 -11
8 -13 -3 -11 -8 2 -13 -3 -11 -10 1 -8 -2 -11 -8 -7 -9 6 -14 -7 -11 -28 0 -4
-5 -6 -11 -5 -7 2 -12 -3 -10 -9 1 -7 -3 -13 -9 -13 -5 0 -7 -5 -3 -12 4 -7 3
-8 -4 -4 -7 4 -12 2 -12 -3 0 -6 -6 -10 -12 -9 -7 2 -12 -3 -11 -9 2 -7 -3
-12 -10 -10 -6 1 -11 -4 -10 -10 2 -7 -2 -13 -8 -13 -5 0 -7 -5 -3 -12 4 -7 3
-8 -4 -4 -7 4 -12 2 -12 -3 0 -6 -6 -10 -12 -8 -7 1 -12 -4 -11 -10 2 -7 -2
-13 -7 -13 -18 0 -10 19 15 36 14 9 25 21 25 26 0 5 -7 2 -16 -6 -8 -9 -19
-16 -24 -16 -15 0 -21 -32 -8 -47 9 -11 8 -13 -3 -11 -8 2 -13 -3 -11 -10 1
-8 -2 -11 -8 -7 -9 6 -14 -7 -11 -27 0 -5 -5 -7 -12 -5 -6 1 -11 -4 -10 -10 2
-7 -2 -13 -8 -13 -5 0 -7 -5 -3 -12 4 -7 3 -8 -4 -4 -7 4 -12 2 -12 -3 0 -6
-6 -10 -12 -8 -7 1 -12 -4 -10 -12 3 -12 0 -12 -13 -1 -8 7 -18 10 -22 6 -3
-3 -1 -6 4 -6 6 0 10 -8 9 -17 -3 -18 -36 -28 -36 -10 0 5 -3 7 -6 4 -4 -4 -1
-14 6 -22 11 -13 11 -16 -1 -13 -8 2 -13 -3 -11 -11 3 -12 0 -12 -13 -1 -8 7
-18 10 -22 6 -3 -3 -1 -6 4 -6 6 0 10 -7 9 -15 -3 -21 -13 -28 -22 -14 -5 8
-3 10 6 4 8 -5 11 -4 7 3 -4 5 -16 8 -27 5 -11 -3 -20 0 -20 6 0 6 4 11 9 11
15 0 22 32 9 47 -9 11 -8 13 3 11 8 -2 13 3 11 11 -2 11 0 12 11 3 15 -13 47
-7 47 8 0 5 7 16 16 24 8 9 11 16 6 16 -5 0 -17 -11 -26 -25 -17 -25 -36 -33
-36 -15 0 5 6 9 13 7 6 -1 11 4 10 11 -2 6 2 12 8 12 5 0 7 5 3 12 -4 7 -3 8
4 4 7 -4 12 -2 12 3 0 6 6 10 13 8 6 -1 11 4 10 10 -2 7 3 12 10 10 6 -1 11 4
10 11 -2 6 2 12 8 12 5 0 7 5 3 12 -4 7 -3 8 4 4 11 -6 16 6 13 26 0 5 5 7 12
5 6 -1 11 4 9 12 -3 12 0 12 13 1 8 -7 18 -10 22 -6 3 3 1 6 -4 6 -6 0 -10 8
-9 17 3 18 36 28 36 10 0 -5 3 -7 6 -4 4 4 1 14 -6 22 -11 13 -11 16 1 13 8
-2 13 3 12 10 -2 6 2 12 8 12 5 0 7 5 3 12 -4 7 -3 8 4 4 7 -4 12 -2 12 3 0 6
6 10 13 9 6 -2 11 3 9 10 -1 6 4 11 10 10 7 -2 12 3 10 10 -1 6 3 12 9 12 5 0
7 5 3 12 -4 7 -3 8 4 4 11 -6 16 6 13 27 0 4 5 6 11 5 7 -2 12 3 10 11 -3 12
0 12 13 1 8 -7 18 -10 22 -6 3 3 1 6 -4 6 -17 0 -8 35 8 35 8 1 13 6 11 13 -1
7 4 11 10 10 7 -2 12 3 10 11 -3 12 -1 12 13 1 23 -19 44 2 25 25 -11 14 -11
16 1 13 8 -2 13 3 11 10 -1 6 4 11 10 10 7 -2 12 3 10 11 -3 12 0 12 13 1 8
-7 18 -10 22 -6 3 3 0 6 -7 6 -7 0 -10 3 -6 8 8 7 13 8 42 11 8 0 12 6 9 11
-4 6 -3 10 2 9 20 -3 34 2 28 11 -4 6 -3 10 2 9 22 -4 44 2 38 10 -3 6 12 8
35 7 21 -2 38 0 35 3 -2 4 11 8 28 9 31 3 50 19 41 34 -3 4 0 8 6 8 6 0 8 5 4
12 -4 7 -3 8 4 4 7 -4 12 -2 12 3 0 6 6 10 13 9 6 -2 11 3 10 10 -2 6 3 11 10
10 6 -2 11 3 9 11 -3 12 -1 12 14 0 12 -9 15 -9 10 -1 -4 6 -3 12 3 12 5 0 11
-5 13 -12 3 -7 7 -5 11 6 4 9 3 15 -2 11 -5 -3 -13 0 -17 6 -4 7 -3 10 2 7 5
-3 18 -2 29 2 16 7 209 6 252 -1z m1110 0 c7 -1 10 -6 7 -11 -5 -7 10 -12 29
-9 4 0 6 -5 5 -11 -2 -7 3 -12 10 -10 6 1 11 -4 10 -10 -2 -7 3 -12 10 -11 6
2 12 -2 12 -8 0 -5 5 -7 12 -3 7 4 8 3 4 -4 -4 -7 -2 -12 4 -12 6 0 9 -4 6 -8
-9 -15 10 -31 41 -34 17 -1 30 -5 28 -9 -3 -3 14 -5 35 -3 23 1 38 -1 35 -7
-6 -8 16 -14 38 -10 5 1 6 -3 2 -9 -6 -9 8 -14 28 -11 5 1 6 -3 2 -9 -3 -5 1
-11 9 -11 30 -3 34 -4 43 -13 13 -14 -48 4 -76 23 -47 31 -79 44 -96 37 -22
-8 -15 -40 10 -45 10 -2 30 -11 44 -20 34 -22 91 -41 91 -30 0 5 -7 9 -15 9
-8 0 -15 5 -15 11 0 7 10 9 26 5 15 -4 32 -2 41 5 11 10 14 10 11 -2 -2 -8 3
-13 10 -11 6 1 11 -4 10 -10 -2 -7 3 -12 11 -10 12 3 12 1 1 -13 -19 -23 2
-44 25 -25 14 11 16 11 13 -1 -2 -8 3 -13 10 -11 6 1 11 -3 10 -10 -2 -7 3
-12 11 -13 16 0 25 -35 8 -35 -5 0 -7 -3 -4 -6 4 -4 14 -1 22 6 13 11 16 11
13 -1 -2 -8 3 -13 10 -11 6 1 11 -1 11 -5 -3 -21 2 -33 13 -27 7 4 8 3 4 -4
-4 -7 -2 -12 3 -12 6 0 10 -6 8 -12 -1 -7 4 -12 10 -11 7 2 12 -3 10 -10 -1
-6 4 -11 11 -10 6 2 12 -2 12 -8 0 -5 5 -7 12 -3 7 4 8 3 4 -4 -4 -7 -2 -12 3
-12 6 0 10 -6 8 -12 -1 -7 4 -12 10 -11 7 2 12 -2 10 -9 -1 -7 4 -12 12 -13
16 0 25 -35 8 -35 -5 0 -7 -3 -4 -6 4 -4 14 -1 22 6 13 11 16 11 13 -1 -2 -8
2 -13 7 -12 6 1 12 -8 12 -20 2 -17 0 -19 -7 -7 -5 8 -10 11 -10 5 1 -5 8 -19
17 -30 12 -16 14 -16 10 -3 -3 10 -1 20 5 24 7 4 8 3 4 -4 -4 -7 -2 -12 3 -12
6 0 10 -6 8 -12 -1 -7 4 -12 10 -11 7 2 12 -3 10 -10 -1 -6 4 -11 11 -10 6 2
12 -2 12 -8 0 -5 5 -7 12 -3 7 4 8 3 4 -4 -4 -7 -2 -12 3 -12 6 0 10 -6 8 -12
-1 -7 4 -12 11 -11 6 2 12 -2 12 -7 0 -18 -19 -10 -36 15 -9 14 -21 25 -26 25
-5 0 -2 -7 6 -16 9 -8 16 -19 16 -24 0 -15 32 -21 47 -8 11 9 13 8 11 -3 -2
-8 3 -13 11 -11 11 2 12 0 3 -11 -13 -15 -6 -47 9 -47 5 0 9 -5 9 -11 0 -6 -9
-9 -20 -6 -11 3 -23 0 -27 -5 -4 -7 -1 -8 8 -3 8 5 11 5 7 1 -3 -4 -10 -6 -14
-4 -13 5 -14 28 -1 28 5 0 7 3 4 6 -4 4 -14 1 -22 -6 -13 -11 -16 -11 -13 1 2
8 -3 13 -11 11 -12 -3 -12 0 -1 13 7 8 10 18 6 22 -3 3 -6 1 -6 -4 0 -18 -33
-8 -36 10 -1 9 3 17 9 17 5 0 7 3 4 6 -4 4 -14 1 -22 -6 -13 -11 -16 -11 -13
1 2 8 -3 13 -9 12 -7 -2 -13 2 -13 8 0 5 -5 7 -12 3 -7 -4 -8 -3 -4 4 4 7 2
12 -3 12 -6 0 -10 6 -8 13 1 6 -4 11 -10 10 -7 -2 -12 0 -12 5 3 20 -2 33 -11
27 -6 -4 -9 -1 -8 7 2 7 -3 12 -11 10 -12 -3 -12 0 -2 12 9 11 10 20 2 33 -6
10 -11 13 -11 7 0 -13 -30 -15 -30 -2 0 5 -5 6 -12 2 -7 -4 -8 -3 -4 4 4 7 2
12 -3 12 -6 0 -10 6 -8 13 1 6 -4 11 -10 10 -7 -2 -12 3 -10 10 1 6 -4 11 -10
10 -7 -2 -13 2 -13 8 0 5 -5 7 -12 3 -7 -4 -8 -3 -4 4 4 7 2 12 -3 12 -6 0
-10 6 -8 13 1 6 -4 11 -10 10 -7 -2 -12 0 -12 5 3 20 -2 33 -11 27 -6 -4 -9
-1 -8 7 2 7 -3 12 -11 10 -11 -2 -12 0 -3 11 25 29 -16 70 -45 45 -11 -9 -13
-8 -11 3 2 8 -3 13 -11 11 -12 -3 -12 -1 -1 13 19 23 -2 44 -25 25 -14 -11
-16 -11 -13 1 2 8 -3 13 -10 11 -6 -1 -11 4 -10 10 2 7 -3 12 -10 10 -8 -1
-11 2 -7 8 3 5 3 10 -2 11 -4 0 -17 3 -28 5 -11 3 -25 6 -32 6 -7 1 -10 5 -7
10 5 7 -10 12 -29 9 -5 -1 -6 3 -2 9 5 9 -22 15 -48 11 -4 0 -6 4 -5 10 2 7
-17 11 -54 11 -32 0 -57 3 -56 7 0 3 -1 9 -2 14 -1 4 -3 13 -4 20 -1 6 -7 11
-14 10 -7 -2 -11 3 -9 10 1 6 -4 11 -10 10 -7 -2 -13 2 -13 8 0 5 -5 7 -12 3
-7 -4 -8 -3 -4 4 7 11 -6 17 -27 13 -5 -1 -6 3 -2 9 5 9 -15 15 -38 11 -5 -1
-6 3 -2 9 4 6 -19 10 -65 10 -46 0 -69 -4 -65 -10 4 -6 3 -10 -2 -9 -18 3 -34
-1 -29 -9 2 -4 -7 -9 -20 -10 -15 -1 -22 2 -19 8 10 17 -4 11 -27 -10 -18 -16
-19 -22 -8 -35 11 -14 11 -16 -1 -13 -8 2 -13 -3 -11 -12 3 -12 1 -13 -9 -2
-17 16 -29 15 -29 -3 0 -8 -4 -15 -10 -15 -5 0 -10 -9 -10 -20 0 -11 -5 -20
-11 -20 -8 0 -10 13 -6 37 4 22 2 42 -5 50 -9 11 -8 13 3 11 8 -2 13 3 12 10
-2 6 3 11 10 10 6 -2 11 3 9 11 -3 12 -1 12 13 1 12 -10 19 -10 27 -2 8 8 8
15 -2 27 -11 14 -11 16 1 13 8 -2 13 3 12 10 -2 6 0 11 5 11 24 -4 42 2 36 13
-4 6 -3 9 2 6 5 -3 18 -2 29 2 17 7 203 6 242 -1z m-1037 -69 c0 -5 -4 -10
-10 -10 -5 0 -10 5 -10 10 0 6 5 10 10 10 6 0 10 -4 10 -10z m710 0 c0 -5 -4
-10 -10 -10 -5 0 -10 5 -10 10 0 6 5 10 10 10 6 0 10 -4 10 -10z m56 -32 c4
-6 3 -8 -4 -4 -5 3 -12 0 -15 -6 -2 -7 -8 -9 -13 -5 -5 4 -2 12 6 17 19 12 17
12 26 -2z m-806 -8 c0 -5 -4 -10 -10 -10 -5 0 -10 5 -10 10 0 6 5 10 10 10 6
0 10 -4 10 -10z m674 -59 c-4 -24 -2 -41 5 -45 17 -11 14 -86 -3 -86 -8 0 -17
10 -19 23 -5 19 -5 19 -4 -3 2 -18 8 -25 22 -25 17 0 21 9 26 56 3 31 13 67
22 79 15 22 16 22 14 2 0 -11 -5 -18 -9 -16 -4 3 -8 -1 -9 -8 0 -7 -2 -22 -4
-33 -2 -11 -5 -36 -6 -56 -3 -33 -5 -36 -35 -36 l-32 0 0 59 c0 32 4 55 9 52
5 -3 10 6 10 20 1 14 3 31 4 36 1 6 3 12 4 15 0 3 3 5 6 5 3 0 2 -17 -1 -39z
m-1174 -7 c0 -12 -7 -15 -25 -12 -17 4 -25 1 -25 -8 0 -8 -7 -14 -15 -14 -8 0
-15 -4 -15 -10 0 -5 -7 -10 -15 -10 -8 0 -15 7 -15 15 0 8 7 15 15 15 8 0 15
3 15 8 0 9 40 29 63 31 9 0 17 -6 17 -15z m1810 1 c0 -8 -9 -15 -20 -15 -11 0
-20 7 -20 15 0 8 9 15 20 15 11 0 20 -7 20 -15z m40 -14 c0 -5 9 -11 21 -14
12 -3 18 -10 14 -16 -8 -14 -35 -14 -35 -1 0 6 -7 10 -15 10 -8 0 -15 7 -15
15 0 8 7 15 15 15 8 0 15 -4 15 -9z m-2080 -91 c0 -5 -4 -10 -10 -10 -5 0 -10
5 -10 10 0 6 5 10 10 10 6 0 10 -4 10 -10z m2250 0 c0 -5 -4 -10 -10 -10 -5 0
-10 5 -10 10 0 6 5 10 10 10 6 0 10 -4 10 -10z m-2210 -40 c0 -5 -4 -10 -10
-10 -5 0 -10 5 -10 10 0 6 5 10 10 10 6 0 10 -4 10 -10z m2170 0 c0 -5 -4 -10
-10 -10 -5 0 -10 5 -10 10 0 6 5 10 10 10 6 0 10 -4 10 -10z m-2220 -50 c0 -5
-6 -9 -12 -7 -7 1 -12 -4 -10 -10 1 -7 -2 -13 -8 -13 -14 0 -13 13 2 28 15 15
28 16 28 2z m2278 -2 c15 -15 16 -28 2 -28 -5 0 -9 6 -7 13 1 6 -4 11 -10 10
-7 -2 -13 2 -13 7 0 14 13 13 28 -2z m202 -228 c0 -5 -5 -10 -11 -10 -5 0 -7
5 -4 10 3 6 8 10 11 10 2 0 4 -4 4 -10z m-2940 -176 c0 -3 -9 -18 -21 -32
l-21 -27 26 -3 c20 -3 25 -8 24 -27 -1 -13 -7 -23 -13 -22 -5 1 -9 -4 -7 -12
3 -12 1 -12 -13 -1 -23 19 -44 -2 -25 -25 11 -14 11 -16 -1 -13 -8 2 -13 -3
-11 -9 1 -7 -4 -12 -10 -10 -7 1 -12 -4 -10 -12 3 -12 1 -12 -13 -1 -23 19
-44 -2 -25 -25 11 -14 11 -16 -1 -13 -8 2 -13 -3 -12 -9 2 -7 -3 -12 -10 -10
-6 1 -11 -4 -9 -12 2 -11 0 -12 -11 -3 -8 7 -23 9 -32 5 -15 -5 -17 -3 -12 12
4 9 2 24 -5 32 -9 11 -8 13 3 11 8 -2 13 3 12 10 -2 6 3 11 10 10 6 -2 11 3 9
11 -3 12 -1 12 13 1 23 -19 44 2 25 25 -11 14 -11 16 1 13 8 -2 13 3 11 10 -1
6 4 11 10 10 7 -2 12 3 10 11 -3 12 -1 12 13 1 23 -19 44 2 25 25 -11 14 -11
16 1 13 8 -2 13 3 11 10 -1 8 2 11 8 7 9 -6 14 7 11 28 0 4 5 6 12 5 6 -2 11
3 10 10 -2 6 2 12 7 12 6 0 10 -3 10 -6z m3188 -6 c-2 -7 3 -12 10 -10 6 1 11
-1 11 -5 -3 -21 2 -34 11 -28 6 4 9 1 8 -7 -2 -7 3 -12 11 -10 12 3 12 1 1
-13 -10 -12 -10 -19 -2 -27 8 -8 15 -8 27 2 14 11 16 11 13 -1 -2 -8 3 -13 10
-11 6 1 11 -4 10 -10 -2 -7 3 -12 11 -10 12 3 12 1 1 -13 -19 -23 2 -44 25
-25 14 11 16 11 13 -1 -2 -8 3 -13 10 -11 6 1 11 -4 10 -10 -2 -7 3 -12 11
-10 11 2 12 0 3 -11 -7 -8 -9 -23 -5 -32 5 -15 3 -17 -12 -12 -9 4 -24 2 -32
-5 -11 -9 -13 -8 -11 3 2 8 -3 13 -9 12 -7 -2 -12 3 -10 10 1 6 -4 11 -12 9
-12 -3 -12 -1 -1 13 19 23 -2 44 -25 25 -14 -11 -16 -11 -13 1 2 8 -3 13 -9
12 -7 -2 -12 3 -10 10 1 6 -4 11 -12 9 -12 -3 -12 -1 -1 13 10 12 10 19 2 27
-8 8 -15 8 -27 -2 -14 -11 -16 -11 -13 1 2 8 -2 13 -7 12 -6 -1 -12 9 -13 22
-1 19 4 24 24 27 l26 3 -21 27 c-23 29 -26 38 -11 38 6 0 9 -6 8 -12z m-3258
-88 c0 -5 -4 -10 -10 -10 -5 0 -10 5 -10 10 0 6 5 10 10 10 6 0 10 -4 10 -10z
m3330 0 c0 -5 -4 -10 -10 -10 -5 0 -10 5 -10 10 0 6 5 10 10 10 6 0 10 -4 10
-10z m-3290 -40 c0 -5 -4 -10 -10 -10 -5 0 -10 5 -10 10 0 6 5 10 10 10 6 0
10 -4 10 -10z m3250 0 c0 -5 -4 -10 -10 -10 -5 0 -10 5 -10 10 0 6 5 10 10 10
6 0 10 -4 10 -10z m-3360 -30 c0 -5 -4 -10 -10 -10 -5 0 -10 5 -10 10 0 6 5
10 10 10 6 0 10 -4 10 -10z m3470 0 c0 -5 -4 -10 -10 -10 -5 0 -10 5 -10 10 0
6 5 10 10 10 6 0 10 -4 10 -10z m-3430 -40 c0 -5 -4 -10 -10 -10 -5 0 -10 5
-10 10 0 6 5 10 10 10 6 0 10 -4 10 -10z m3390 0 c0 -5 -4 -10 -10 -10 -5 0
-10 5 -10 10 0 6 5 10 10 10 6 0 10 -4 10 -10z m-3500 -26 c0 -3 -5 -14 -10
-25 -8 -15 -7 -19 5 -19 22 0 19 -27 -4 -35 -25 -8 -35 -34 -19 -52 9 -11 8
-13 -3 -11 -8 2 -13 -3 -11 -11 2 -11 0 -12 -11 -3 -29 25 -70 -16 -45 -45 9
-11 8 -13 -3 -11 -8 2 -13 -3 -11 -11 2 -11 0 -12 -11 -3 -8 7 -22 10 -31 6
-18 -7 -21 -20 -6 -29 7 -4 7 -12 0 -24 -5 -10 -6 -22 -2 -26 4 -5 1 -5 -5 -1
-7 4 -13 2 -13 -3 0 -6 -6 -10 -12 -8 -7 1 -12 -4 -10 -11 1 -8 -2 -11 -8 -7
-5 3 -11 -1 -11 -9 -3 -35 -5 -41 -17 -38 -10 2 -17 -17 -13 -41 0 -4 -5 -6
-11 -5 -7 2 -12 -3 -10 -10 1 -8 -2 -11 -8 -7 -5 3 -11 1 -11 -4 -2 -12 -5
-26 -9 -38 -1 -5 -2 -12 -1 -16 1 -5 -3 -6 -9 -2 -9 5 -16 -31 -11 -58 1 -5
-3 -6 -9 -2 -9 6 -14 -8 -11 -28 1 -5 -3 -6 -9 -2 -6 4 -10 -5 -11 -22 0 -15
-2 -37 -5 -48 -2 -11 -5 -32 -6 -47 -1 -15 -6 -24 -10 -22 -4 3 -8 0 -8 -5 0
-6 -1 -74 -1 -151 0 -77 1 -145 1 -151 0 -5 4 -8 8 -5 4 2 9 -7 10 -22 1 -15
4 -36 6 -47 3 -11 5 -33 5 -48 1 -17 5 -26 11 -22 6 4 10 3 9 -2 -3 -20 2 -34
11 -28 6 4 10 3 9 -2 -4 -22 2 -54 9 -49 5 3 9 0 10 -7 0 -7 3 -21 6 -32 2
-11 5 -24 5 -28 1 -5 6 -5 11 -2 6 4 9 1 8 -7 -2 -7 3 -12 9 -11 7 2 12 0 12
-5 -4 -23 3 -42 13 -39 12 2 14 -4 17 -39 0 -8 6 -12 11 -9 6 4 9 1 8 -7 -2
-7 3 -12 10 -11 6 2 12 -2 12 -8 0 -5 4 -8 8 -5 4 2 8 -7 9 -22 2 -26 1 -26
-7 -4 -5 12 -15 22 -22 21 -10 0 -10 -2 0 -6 6 -2 12 -11 12 -19 0 -16 -26
-19 -33 -4 -3 6 -4 5 -3 -2 1 -7 16 -14 32 -16 50 -4 54 -5 54 -13 0 -4 -17
-5 -37 -2 -21 2 -43 5 -50 5 -7 1 -11 6 -10 12 1 6 -4 10 -10 9 -7 -2 -13 2
-13 8 0 5 -5 7 -12 3 -7 -4 -8 -3 -4 4 4 7 2 12 -3 12 -6 0 -10 3 -10 8 4 22
-2 42 -11 37 -5 -3 -10 -1 -10 5 0 6 -4 9 -8 6 -4 -2 -9 7 -10 20 -1 15 2 22
8 19 6 -3 10 -2 10 4 0 5 -4 11 -9 13 -14 5 -25 58 -12 58 6 0 11 -7 11 -15 0
-8 4 -15 9 -15 9 0 -10 64 -22 76 -4 4 -7 14 -7 22 0 7 -8 26 -19 40 -10 15
-23 56 -27 91 -5 38 -14 65 -22 67 -7 1 -8 0 -2 -3 13 -6 13 -63 0 -63 -15 0
-12 -61 5 -94 8 -15 15 -35 15 -43 0 -8 8 -27 18 -41 27 -38 43 -90 31 -98 -5
-3 -9 -2 -8 3 1 4 0 11 -1 16 -5 15 -8 27 -9 43 0 8 -6 12 -11 9 -6 -4 -10 -3
-9 2 3 20 -2 34 -11 28 -6 -4 -10 -3 -9 2 5 27 -2 63 -11 58 -6 -4 -10 -3 -9
2 1 4 0 11 -1 16 -6 17 -8 29 -9 58 0 16 -5 28 -9 25 -14 -8 -14 65 0 82 10
12 10 14 1 8 -8 -4 -13 -2 -13 4 0 6 -4 9 -9 5 -6 -3 -10 53 -10 145 0 92 4
148 10 145 10 -7 10 -2 11 62 0 24 4 40 9 37 5 -3 9 7 10 23 0 15 3 37 5 48 3
11 6 25 6 32 1 7 5 10 10 7 7 -5 13 27 9 49 -1 5 3 6 9 2 9 -6 14 8 11 28 -1
5 3 6 9 2 5 -3 11 1 11 9 1 16 4 28 9 44 1 4 2 11 1 15 -1 5 3 6 9 2 9 -5 15
15 11 38 -1 5 3 6 9 2 5 -3 10 -1 10 5 0 6 5 8 10 5 9 -5 15 15 11 38 0 4 4 7
10 7 5 0 7 5 3 12 -4 7 -3 8 4 4 7 -4 12 -2 12 4 0 6 5 8 10 5 9 -5 15 15 11
37 0 5 4 7 11 5 7 -1 12 4 13 12 0 16 35 25 35 8 0 -5 3 -7 6 -4 4 4 1 14 -6
22 -11 13 -11 16 1 13 8 -2 13 3 11 11 -3 12 0 12 13 1 8 -7 18 -10 22 -6 3 3
1 6 -4 6 -6 0 -10 8 -9 17 3 18 36 28 36 10 0 -5 3 -7 6 -4 4 4 1 14 -6 22
-11 13 -11 16 1 13 8 -2 13 3 11 11 -3 12 0 12 13 1 8 -7 18 -10 22 -6 3 3 1
6 -4 6 -17 0 -8 35 8 35 8 1 13 7 11 14 -1 7 2 10 8 6 9 -6 14 7 11 28 0 4 4
7 9 7 6 0 10 -3 10 -6z m3609 -1 c-3 -21 2 -34 11 -28 6 4 9 1 8 -6 -2 -7 3
-13 11 -14 16 0 25 -35 8 -35 -5 0 -7 -3 -4 -6 4 -4 14 -1 22 6 13 11 16 11
13 -1 -2 -8 3 -13 11 -11 12 3 12 0 1 -13 -7 -8 -10 -18 -6 -22 3 -3 6 -1 6 4
0 18 33 8 36 -10 1 -9 -3 -17 -9 -17 -5 0 -7 -3 -4 -6 4 -4 14 -1 22 6 13 11
16 11 13 -1 -2 -8 3 -13 11 -11 12 3 12 0 1 -13 -7 -8 -10 -18 -6 -22 3 -3 6
-1 6 4 0 17 35 8 35 -8 1 -8 6 -13 13 -12 7 2 11 0 11 -5 -4 -22 2 -42 11 -37
6 3 10 1 10 -5 0 -6 5 -8 12 -4 7 4 8 3 4 -4 -4 -7 -2 -12 3 -12 6 0 10 -3 10
-7 -4 -23 2 -43 11 -38 6 3 10 1 10 -5 0 -6 4 -9 8 -6 4 2 9 -7 10 -20 1 -15
-2 -22 -8 -19 -6 3 -10 2 -10 -4 0 -5 4 -11 9 -13 14 -5 25 -58 12 -58 -6 0
-11 7 -11 15 0 8 -4 15 -10 15 -6 0 -5 -11 2 -27 18 -43 27 -51 48 -46 15 4
20 0 21 -13 0 -11 3 -13 6 -7 2 7 -4 25 -15 40 -26 39 -43 91 -31 99 5 3 9 2
8 -3 -1 -4 0 -11 1 -15 5 -16 8 -28 9 -44 0 -8 6 -12 11 -9 6 4 10 3 9 -2 -3
-20 2 -34 11 -28 6 4 10 3 9 -2 -4 -22 2 -54 9 -49 5 3 9 0 10 -7 0 -7 3 -21
6 -32 2 -11 5 -33 5 -48 1 -16 5 -26 10 -23 5 3 9 -13 9 -37 1 -64 1 -69 11
-62 6 3 10 -53 10 -145 0 -92 -4 -148 -10 -145 -10 7 -10 2 -11 -62 0 -24 -4
-40 -9 -37 -5 3 -10 -9 -10 -25 -1 -29 -3 -41 -9 -58 -1 -5 -2 -12 -1 -16 1
-5 -3 -6 -9 -2 -9 5 -16 -31 -11 -58 1 -5 -3 -6 -9 -2 -9 6 -14 -8 -11 -28 1
-5 -3 -6 -9 -2 -5 3 -11 -1 -11 -9 -1 -16 -4 -28 -9 -43 -1 -5 -2 -12 -1 -16
1 -5 -3 -6 -8 -3 -12 8 4 60 31 98 22 32 24 45 3 24 -8 -8 -15 -19 -15 -25 0
-6 -7 -11 -15 -11 -8 0 -15 7 -15 15 0 8 5 15 10 15 6 0 10 11 10 25 0 25 25
36 32 13 6 -17 38 56 38 85 0 14 5 29 10 32 6 3 10 14 9 23 0 12 -3 10 -10 -6
-12 -30 -29 -19 -29 19 0 30 24 42 33 17 3 -7 4 -3 4 8 -1 18 -5 20 -22 14
-16 -6 -22 -20 -29 -71 -4 -35 -17 -76 -27 -91 -11 -14 -19 -33 -19 -40 0 -8
-3 -18 -7 -22 -12 -12 -31 -76 -22 -76 5 0 9 7 9 15 0 8 5 15 10 15 14 0 12
-14 -7 -60 -10 -22 -25 -43 -34 -45 -9 -3 -19 -19 -22 -34 -7 -32 -44 -52 -57
-31 -5 9 -12 5 -23 -10 -16 -22 -16 -22 -14 -2 0 11 6 20 12 19 5 -1 9 4 8 10
-2 7 3 12 10 10 6 -1 11 4 9 11 -1 8 2 11 8 7 5 -3 11 1 11 9 3 35 5 41 17 39
10 -3 17 16 13 39 0 5 5 7 12 5 6 -1 11 4 9 11 -1 8 2 11 8 7 5 -3 10 -3 11 2
0 4 3 17 5 28 3 11 6 25 6 32 1 7 5 10 10 7 7 -5 13 27 9 49 -1 5 3 6 9 2 9
-6 14 8 11 28 -1 5 3 6 9 2 6 -4 10 5 11 22 0 15 2 37 5 48 2 11 5 32 6 47 1
15 6 24 10 22 4 -3 8 -2 8 3 0 4 1 92 1 196 0 155 3 187 15 187 8 0 14 -5 14
-12 0 -6 3 -9 6 -5 3 3 2 12 -2 19 -5 7 -13 35 -19 62 -5 27 -16 51 -23 52 -7
1 -8 0 -2 -3 16 -7 12 -33 -5 -33 -8 0 -15 7 -15 15 0 8 -4 15 -10 15 -5 0
-10 8 -11 18 0 10 -3 12 -6 5 -2 -7 4 -25 15 -40 19 -27 45 -160 32 -168 -3
-2 -7 8 -8 23 -1 15 -4 36 -6 47 -3 11 -5 33 -5 48 -1 17 -5 26 -11 22 -6 -4
-10 -3 -9 2 3 20 -2 34 -11 28 -6 -4 -10 -3 -9 2 5 27 -2 63 -11 58 -6 -4 -10
-3 -9 2 1 4 0 11 -1 16 -4 12 -7 26 -9 38 0 5 -6 7 -11 4 -6 -4 -9 -1 -8 7 2
7 -3 12 -10 10 -6 -1 -11 1 -11 5 4 24 -3 43 -13 41 -12 -3 -14 3 -17 38 0 8
-6 12 -11 9 -6 -4 -9 -1 -8 7 2 7 -3 12 -9 11 -7 -2 -13 2 -13 8 0 5 -4 8 -8
5 -5 -3 -9 0 -10 7 -3 33 -11 52 -21 50 -6 -2 -11 2 -11 7 0 17 18 11 34 -12
9 -12 16 -17 16 -11 0 13 -27 43 -39 43 -4 0 -13 -6 -20 -12 -10 -11 -12 -10
-9 2 2 9 -3 14 -11 12 -11 -2 -12 0 -3 11 25 29 -16 70 -45 45 -11 -9 -13 -8
-11 3 2 8 -3 13 -11 11 -11 -2 -12 0 -3 11 16 18 6 44 -19 52 -23 8 -26 35 -4
35 12 0 13 4 5 19 -13 25 -13 31 0 31 6 0 9 -3 9 -7z m-3574 -50 c-4 -10 -8
-23 -8 -30 0 -7 -4 -10 -9 -7 -4 3 -8 0 -8 -5 0 -6 -6 -10 -12 -8 -7 1 -12 -4
-10 -10 1 -7 -2 -13 -8 -13 -18 0 -10 19 15 36 14 9 25 25 25 35 0 11 5 19 11
19 7 0 8 -7 4 -17z m3535 -2 c0 -10 11 -26 25 -35 25 -17 33 -36 15 -36 -5 0
-9 6 -7 13 1 6 -4 11 -10 10 -7 -2 -13 2 -13 8 0 5 -4 8 -8 5 -5 -3 -9 0 -9 7
0 7 -4 20 -8 30 -4 10 -3 17 4 17 6 0 11 -8 11 -19z m-3630 -111 c0 -5 -6 -9
-12 -7 -7 1 -12 -4 -10 -10 1 -7 -2 -13 -8 -13 -14 0 -13 13 2 28 15 15 28 16
28 2z m3738 -2 c15 -15 16 -28 2 -28 -5 0 -9 6 -7 13 1 6 -4 11 -10 10 -7 -2
-13 2 -13 7 0 14 13 13 28 -2z m-3808 -66 c0 -5 -7 -9 -15 -9 -8 0 -12 4 -9 9
3 4 9 8 15 8 5 0 9 -4 9 -8z m4070 -242 c0 -5 -7 -10 -15 -10 -8 0 -15 5 -15
10 0 6 7 10 15 10 8 0 15 -4 15 -10z m50 -140 c0 -16 -4 -30 -10 -30 -5 0 -10
14 -10 30 0 17 5 30 10 30 6 0 10 -13 10 -30z m-2451 -267 c0 -94 -4 -151 -10
-148 -5 4 -9 3 -9 -2 -1 -10 -11 -144 -12 -160 -1 -7 -5 -10 -10 -7 -7 5 -12
-10 -9 -29 1 -5 -3 -6 -9 -2 -9 5 -16 -31 -11 -58 1 -5 -3 -6 -9 -2 -5 3 -10
3 -11 -2 0 -4 -3 -17 -5 -28 -3 -11 -6 -25 -6 -32 -1 -7 -5 -10 -10 -7 -7 5
-12 -10 -9 -29 1 -5 -3 -6 -9 -2 -5 3 -11 -1 -11 -9 -3 -35 -5 -41 -17 -38
-10 2 -17 -17 -13 -41 0 -4 -5 -6 -11 -5 -7 2 -12 -3 -10 -11 3 -12 1 -12 -14
-1 -14 12 -18 12 -29 -3 -14 -19 -35 -23 -35 -7 0 6 11 21 25 34 14 13 25 32
24 42 0 16 -2 16 -9 -3 -11 -26 -16 -28 -26 -11 -4 7 -3 8 4 4 11 -6 17 13 13
37 -1 5 3 6 9 2 5 -3 10 -1 10 5 0 6 5 8 10 5 6 -4 8 -11 5 -16 -3 -5 1 -6 9
-3 9 3 16 14 16 24 0 10 7 25 15 34 8 8 15 20 15 26 0 6 8 10 18 8 10 -2 24 7
35 24 21 35 22 44 2 24 -8 -8 -15 -19 -15 -25 0 -6 -5 -11 -11 -11 -7 0 -9 9
-5 23 3 12 6 30 6 40 0 9 7 17 15 17 8 0 15 -6 15 -12 0 -7 12 4 26 25 14 21
23 46 21 55 -3 12 -5 11 -6 -5 -2 -37 -31 -29 -31 8 0 26 3 30 20 26 22 -6 32
14 28 60 -3 44 -34 39 -37 -7 -1 -19 -6 -39 -11 -44 -6 -6 -10 -21 -10 -36 0
-14 -9 -36 -20 -50 -11 -14 -20 -34 -20 -45 0 -11 -8 -33 -17 -50 -9 -16 -24
-46 -35 -65 -17 -33 -18 -33 -16 -7 1 15 6 27 11 27 4 0 5 5 1 12 -4 7 -3 8 4
4 11 -7 17 6 13 27 -1 5 3 6 9 2 5 -3 10 0 11 7 0 7 3 22 5 33 2 11 5 28 6 37
1 9 6 14 10 12 8 -5 12 11 9 29 -1 5 3 6 9 2 9 -5 16 40 11 68 -1 5 3 6 9 2 6
-4 11 6 11 24 1 17 3 36 4 41 1 6 3 13 4 18 1 4 2 73 2 153 l0 146 34 0 34 0
0 -154z m580 8 c0 -80 1 -149 2 -153 1 -5 3 -12 4 -18 1 -5 3 -24 4 -41 0 -18
5 -28 11 -24 6 4 10 3 9 -2 -5 -28 2 -73 11 -68 6 4 10 3 9 -2 -3 -18 1 -34 9
-29 4 2 9 -3 10 -12 1 -9 4 -26 6 -37 2 -11 5 -26 5 -33 1 -7 6 -10 11 -7 6 4
10 3 9 -2 -4 -21 2 -34 13 -27 6 4 8 3 4 -4 -3 -6 -2 -13 3 -16 4 -3 8 -20 8
-39 -1 -44 7 -55 39 -51 14 1 23 -1 19 -4 -3 -4 -14 -7 -23 -7 -12 0 -17 -9
-18 -28 -1 -15 1 -25 4 -22 3 2 10 -3 17 -12 17 -23 49 -9 42 17 -3 11 -1 22
3 25 4 3 7 -9 6 -25 -1 -19 3 -30 11 -31 7 -1 19 -2 25 -3 7 0 13 -16 14 -34
1 -18 -1 -30 -4 -27 -3 3 -12 -1 -20 -8 -13 -10 -14 -9 -7 2 6 11 4 13 -8 8
-10 -3 -17 -2 -17 4 0 6 -4 8 -9 5 -5 -4 -8 5 -6 19 2 23 -9 31 -38 26 -5 -1
-6 3 -3 8 3 5 0 11 -8 14 -9 4 -13 18 -12 37 2 35 -9 47 -41 44 -12 0 -22 2
-21 5 2 23 -4 41 -12 36 -6 -4 -10 -3 -9 2 3 19 -2 34 -9 29 -5 -3 -9 0 -10 7
0 7 -3 21 -6 32 -2 11 -5 24 -5 28 -1 5 -6 5 -11 2 -6 -4 -10 -3 -9 2 5 27 -2
63 -11 58 -6 -4 -10 -3 -9 2 3 19 -2 34 -9 29 -5 -3 -9 0 -10 7 0 7 -3 44 -6
82 -3 39 -6 70 -6 70 -7 0 -12 63 -16 176 l-4 136 34 0 35 0 0 -146z m-619
-211 c0 -16 -4 -30 -10 -30 -5 0 -10 14 -10 30 0 17 5 30 10 30 6 0 10 -13 10
-30z m-1880 -70 c0 -16 -4 -30 -10 -30 -5 0 -10 14 -10 30 0 17 5 30 10 30 6
0 10 -13 10 -30z m4370 0 c0 -16 -4 -30 -10 -30 -5 0 -10 14 -10 30 0 17 5 30
10 30 6 0 10 -13 10 -30z m-4350 -50 c0 -5 -7 -10 -15 -10 -8 0 -15 5 -15 10
0 6 7 10 15 10 8 0 15 -4 15 -10z m1830 0 c0 -5 -7 -10 -15 -10 -8 0 -15 5
-15 10 0 6 7 10 15 10 8 0 15 -4 15 -10z m2510 0 c0 -5 -7 -10 -15 -10 -8 0
-15 5 -15 10 0 6 7 10 15 10 8 0 15 -4 15 -10z m-4320 -45 c0 -14 5 -25 10
-25 6 0 10 -7 10 -15 0 -20 -20 -19 -36 3 -18 24 -18 62 1 62 9 0 15 -9 15
-25z m4248 -159 c-1 -14 -6 -22 -10 -20 -4 3 -8 0 -8 -6 0 -6 -4 -8 -10 -5 -9
5 -15 -15 -11 -37 0 -5 -4 -8 -10 -8 -5 0 -7 -5 -3 -12 4 -7 3 -8 -4 -4 -7 4
-12 3 -12 -2 0 -5 -7 -9 -15 -9 -10 0 -6 8 10 23 14 13 25 30 25 38 0 8 9 20
20 26 11 6 20 17 20 25 0 8 2 15 5 15 3 0 4 -11 3 -24z m-2618 -55 c0 -5 -7
-11 -15 -15 -20 -7 -19 -35 1 -43 10 -4 22 1 30 12 8 10 17 15 21 10 5 -4 2
-10 -5 -12 -6 -3 -10 -9 -6 -14 3 -5 2 -9 -3 -8 -29 5 -40 -3 -38 -26 2 -14
-2 -23 -8 -22 -7 1 -11 -4 -9 -10 1 -7 -3 -13 -9 -13 -5 0 -8 -4 -5 -9 3 -4
-9 -8 -27 -7 -28 1 -32 5 -33 33 -1 18 4 31 9 30 6 -1 11 5 12 13 0 8 6 16 13
16 6 1 18 2 25 3 8 1 12 12 11 31 -1 16 2 27 7 24 5 -3 9 0 9 5 0 6 5 11 10
11 6 0 10 -4 10 -9z m1010 -11 c22 -22 26 -40 9 -40 -14 0 -38 30 -39 48 0 17
7 15 30 -8z m20 10 c0 -5 -4 -10 -10 -10 -5 0 -10 5 -10 10 0 6 5 10 10 10 6
0 10 -4 10 -10z m1480 -50 c8 -15 8 -20 -2 -18 -8 2 -12 -7 -12 -24 1 -15 -4
-26 -10 -25 -6 1 -10 -4 -8 -10 1 -7 -4 -12 -10 -10 -7 1 -11 -5 -10 -13 2 -8
1 -12 -3 -8 -4 4 -18 3 -31 -2 -18 -7 -24 -6 -24 4 0 8 8 13 18 11 9 -1 13 0
7 2 -16 6 -35 53 -21 50 6 -1 10 4 8 12 -2 11 0 12 10 3 8 -6 24 -9 36 -5 22
5 31 -11 12 -20 -6 -3 -5 -4 2 -3 26 5 13 31 -14 29 -16 -1 -28 2 -28 6 0 7
13 10 55 12 11 1 14 3 8 6 -15 6 -17 23 -3 23 5 0 14 -9 20 -20z m-3912 -32
c-2 -7 2 -12 8 -11 14 3 -5 -44 -21 -50 -5 -2 -2 -3 8 -2 9 2 17 -3 17 -11 0
-10 -6 -11 -24 -4 -13 5 -27 6 -31 2 -4 -4 -5 0 -3 8 2 8 -3 14 -9 13 -7 -2
-12 3 -10 10 1 6 -3 11 -8 10 -6 -1 -12 8 -12 19 -2 20 -1 20 12 2 7 -11 17
-16 21 -11 4 4 2 7 -4 7 -7 0 -12 5 -12 11 0 7 10 9 24 5 14 -3 28 -2 31 4 9
14 16 13 13 -2z m68 -40 c4 4 4 1 0 -5 -4 -7 -3 -13 2 -13 5 0 9 -15 9 -33 0
-30 -3 -33 -28 -33 -15 0 -27 4 -26 10 1 6 -4 10 -12 8 -12 -3 -12 0 -2 11 7
9 9 26 5 41 -6 25 -5 26 19 17 14 -5 28 -7 33 -3z m3730 -14 c-4 -15 -2 -32 5
-41 10 -11 10 -14 -2 -11 -8 2 -13 -3 -11 -11 3 -12 0 -12 -13 -1 -8 7 -18 10
-22 6 -3 -3 -1 -6 4 -6 15 0 9 -35 -5 -36 -7 -1 -19 -2 -28 -3 -8 0 -12 -5 -9
-11 3 -5 1 -10 -5 -10 -6 0 -8 -5 -5 -10 4 -6 3 -10 -2 -9 -23 4 -43 -2 -38
-11 4 -6 3 -10 -2 -9 -4 1 -11 0 -15 -1 -16 -5 -28 -8 -44 -9 -8 0 -12 -6 -9
-11 4 -6 3 -10 -2 -9 -19 3 -34 -2 -29 -10 3 -4 -14 -8 -38 -8 -42 0 -43 1
-43 33 0 18 3 33 6 32 24 -2 51 3 47 10 -3 5 0 9 7 9 7 0 26 3 42 7 l30 6 -32
-12 c-37 -15 -64 -38 -45 -38 7 0 12 5 12 10 0 6 7 10 15 10 8 0 15 -7 15 -15
0 -8 -7 -15 -15 -15 -8 0 -15 -4 -15 -10 0 -5 -11 -10 -25 -10 -25 0 -35 23
-15 33 6 3 5 4 -2 3 -7 -2 -13 -11 -13 -22 0 -27 39 -30 74 -5 16 12 32 21 36
21 17 0 81 35 95 52 9 10 25 20 37 21 12 0 20 4 18 8 -9 13 -55 -4 -60 -22 -4
-10 -15 -19 -26 -19 -10 0 -19 -4 -19 -9 0 -14 -52 -23 -63 -12 -8 8 -4 11 11
11 25 0 28 10 10 29 -11 10 -10 12 2 9 9 -2 14 3 12 11 -3 12 -1 12 14 0 12
-9 15 -9 10 -1 -4 7 -1 12 8 12 9 0 15 5 14 12 -3 12 3 14 38 17 8 0 12 6 9
11 -3 6 -1 10 4 10 6 0 11 -5 11 -10 0 -13 -41 -30 -54 -22 -5 3 -6 0 -3 -5 9
-15 55 -4 62 14 3 9 0 22 -7 30 -9 11 -8 13 3 11 8 -2 13 3 11 10 -1 8 1 11 5
9 5 -2 17 -1 28 4 11 4 22 8 24 8 2 1 0 -11 -3 -25z m-1229 2 c-1 -6 4 -10 11
-8 6 1 11 -4 10 -10 -2 -7 4 -12 12 -10 12 3 13 1 3 -9 -7 -7 -13 -16 -13 -20
0 -13 44 -18 58 -7 10 9 12 8 10 -3 -2 -8 3 -13 10 -11 8 1 11 -1 8 -6 -10
-16 13 -36 46 -39 54 -5 57 -6 52 -15 -4 -7 35 -13 59 -9 5 1 6 -3 2 -9 -6 -9
8 -14 28 -11 5 1 6 -3 2 -9 -3 -5 -3 -10 2 -11 4 0 33 -2 63 -5 30 -3 60 -6
67 -6 7 -1 10 -5 7 -10 -3 -4 1 -8 8 -8 7 -1 74 -1 149 -1 l136 0 0 -34 0 -34
-144 0 c-87 0 -141 4 -138 10 7 10 2 10 -62 11 -24 0 -40 4 -37 9 5 9 -15 13
-46 10 -13 -2 -13 0 -1 8 14 9 37 5 57 -11 7 -5 28 -8 47 -6 31 2 34 4 27 22
-4 12 -15 22 -24 22 -13 2 -13 1 -1 -3 28 -8 17 -33 -15 -33 -20 0 -30 5 -30
15 0 8 5 15 12 15 26 0 -3 12 -37 15 -20 2 -43 9 -50 15 -8 7 -20 10 -27 7 -8
-4 -7 -6 5 -6 21 -1 23 -31 2 -31 -8 0 -15 5 -15 10 0 6 -11 10 -25 10 -36 0
-33 30 3 31 27 2 27 2 2 6 -14 3 -31 10 -38 15 -7 6 -15 8 -19 5 -3 -4 -12 -2
-19 3 -6 6 -16 10 -20 9 -21 -4 -32 2 -37 21 -3 11 -11 20 -19 19 -10 0 -10
-2 0 -6 6 -2 12 -11 12 -18 0 -7 -6 -15 -12 -18 -7 -2 -5 -3 5 -1 10 1 27 -7
37 -19 11 -11 22 -18 26 -15 3 3 17 -5 31 -18 14 -13 31 -24 38 -24 7 0 26 -7
41 -15 l29 -15 -27 2 c-15 1 -24 6 -22 10 5 7 -27 13 -49 9 -5 -1 -6 3 -2 9 6
9 -8 14 -28 11 -5 -1 -6 3 -2 9 5 9 -15 15 -38 11 -5 -1 -6 3 -3 8 9 13 -15
27 -46 25 -15 0 -26 4 -25 10 1 6 -5 10 -13 8 -12 -3 -13 -1 -2 9 6 7 12 16
12 20 0 13 -44 18 -58 7 -10 -9 -12 -8 -10 3 2 8 -3 13 -11 11 -11 -2 -12 0
-3 10 6 8 9 24 5 36 -3 13 -1 22 6 22 6 0 11 -4 11 -10 0 -5 5 -10 12 -10 8 0
7 6 -4 16 -21 22 -41 8 -34 -22 4 -13 3 -24 -2 -24 -5 0 -9 15 -9 33 0 30 3
33 28 33 15 0 27 -4 26 -10z m-1311 -65 c-1 -21 -6 -37 -14 -37 -6 -1 -17 -2
-23 -3 -5 0 -8 -5 -5 -9 8 -13 -41 -12 -52 1 -13 15 -12 58 0 51 4 -3 8 0 8 5
0 6 3 10 8 10 18 -3 33 2 28 9 -3 5 8 8 23 8 26 0 28 -3 27 -35z m1384 7 c0
-11 -12 -10 -30 2 -12 7 -10 9 8 7 12 0 22 -5 22 -9z m-2453 -32 c-1 -6 4 -10
11 -8 8 1 11 -2 7 -8 -3 -5 -3 -10 2 -11 4 0 17 -3 28 -5 11 -3 25 -6 32 -6 7
-1 10 -5 7 -10 -5 -7 27 -13 49 -9 5 1 6 -3 2 -9 -6 -9 7 -14 27 -11 5 0 7 -4
5 -11 -1 -6 11 -12 28 -13 17 -2 32 -3 35 -5 3 -1 21 -2 41 -2 33 0 36 -2 36
-33 0 -31 -2 -32 -43 -32 -24 0 -41 4 -38 8 5 9 -3 11 -43 12 -12 0 -20 3 -17
8 2 4 -9 6 -26 4 -17 -2 -28 0 -25 6 5 8 -33 14 -58 10 -5 -1 -6 3 -2 9 6 9
-8 14 -28 11 -5 -1 -6 3 -2 9 3 5 -1 11 -9 11 -16 1 -28 4 -43 9 -5 1 -12 2
-16 1 -5 -1 -6 3 -2 9 5 9 -6 14 -26 12 -3 -1 -6 14 -6 32 0 31 2 33 38 33 22
0 37 -5 36 -11z m2403 -6 c12 -7 10 -9 -8 -7 -12 0 -22 5 -22 9 0 11 12 10 30
-2z m-1433 -50 c-1 -10 -4 -18 -7 -18 -3 0 -8 -1 -12 -2 -16 -5 -28 -8 -44 -9
-8 0 -12 -6 -9 -11 4 -6 3 -10 -2 -9 -20 3 -34 -2 -28 -11 4 -6 3 -10 -2 -9
-22 4 -54 -2 -49 -9 3 -5 -10 -9 -28 -9 -30 0 -33 3 -33 33 0 18 3 33 6 32 23
-2 41 4 36 12 -4 6 -3 10 2 9 25 -4 53 2 48 11 -4 6 -3 10 2 9 4 -1 10 0 13 1
15 5 47 11 63 11 11 0 15 5 10 12 -3 7 3 4 15 -6 11 -11 20 -27 19 -37z m1563
0 c0 -5 -4 -10 -10 -10 -5 0 -10 5 -10 10 0 6 5 10 10 10 6 0 10 -4 10 -10z
m40 -15 c0 -8 -4 -15 -10 -15 -5 0 -10 7 -10 15 0 8 5 15 10 15 6 0 10 -7 10
-15z m-1893 -70 c0 -29 -3 -32 -32 -32 -29 0 -32 3 -32 32 0 29 3 32 32 32 29
0 32 -3 32 -32z m2499 3 c0 -15 -2 -26 -4 -23 -3 3 -12 -1 -20 -8 -13 -10 -14
-9 -7 2 6 10 4 13 -7 9 -10 -4 -14 1 -14 21 0 23 4 27 26 27 22 0 26 -4 26
-28z m-486 12 c0 -5 -4 -10 -10 -10 -5 0 -10 5 -10 10 0 6 5 10 10 10 6 0 10
-4 10 -10z m40 0 c0 -5 -7 -10 -15 -10 -8 0 -15 5 -15 10 0 6 7 10 15 10 8 0
15 -4 15 -10z m-2163 -35 l0 -33 -92 0 -92 0 0 33 0 33 92 0 92 0 0 -33z"/>
<path d="M1835 4269 c-11 -16 -1 -19 13 -3 7 8 8 14 3 14 -5 0 -13 -5 -16 -11z"/>
<path d="M1787 4220 c-8 -22 -18 -30 -42 -32 -48 -5 -39 -32 13 -36 37 -3 43
0 51 21 6 14 15 28 20 32 6 3 11 11 11 17 0 6 -8 1 -19 -10 -10 -12 -21 -22
-25 -22 -12 0 -6 29 10 44 9 10 11 16 4 16 -7 0 -17 -13 -23 -30z m13 -50 c0
-5 -18 -10 -40 -10 -22 0 -40 5 -40 10 0 6 18 10 40 10 22 0 40 -4 40 -10z"/>
<path d="M2263 4058 c1 -25 7 -33 21 -33 11 0 20 6 22 13 1 7 0 8 -3 2 -10
-21 -32 -9 -37 20 -6 30 -6 30 -3 -2z"/>
<path d="M1332 3920 c-17 -27 -15 -35 4 -16 8 9 14 21 12 26 -2 6 -9 1 -16
-10z"/>
<path d="M1360 3896 c0 -8 -6 -17 -12 -19 -10 -4 -10 -6 -1 -6 7 -1 17 8 23
19 7 14 7 20 0 20 -5 0 -10 -6 -10 -14z"/>
<path d="M1295 3869 c-11 -16 -1 -19 13 -3 7 8 8 14 3 14 -5 0 -13 -5 -16 -11z"/>
<path d="M1322 3844 c-7 -8 -8 -14 -3 -14 10 0 25 19 20 25 -2 1 -10 -3 -17
-11z"/>
<path d="M1255 3839 c-11 -16 -1 -19 13 -3 7 8 8 14 3 14 -5 0 -13 -5 -16 -11z"/>
<path d="M1282 3814 c-7 -8 -8 -14 -3 -14 10 0 25 19 20 25 -2 1 -10 -3 -17
-11z"/>
<path d="M1142 3710 c-17 -27 -15 -35 4 -16 8 9 14 21 12 26 -2 6 -9 1 -16
-10z"/>
<path d="M1170 3686 c0 -8 -6 -17 -12 -19 -10 -4 -10 -6 -1 -6 7 -1 17 8 23
19 7 14 7 20 0 20 -5 0 -10 -6 -10 -14z"/>
<path d="M1105 3659 c-11 -16 -1 -19 13 -3 7 8 8 14 3 14 -5 0 -13 -5 -16 -11z"/>
<path d="M1132 3634 c-7 -8 -8 -14 -3 -14 10 0 25 19 20 25 -2 1 -10 -3 -17
-11z"/>
<path d="M3042 4323 c-33 -6 -81 -33 -60 -33 9 0 20 5 23 10 10 16 45 12 45
-5 0 -8 -6 -15 -14 -15 -8 0 -17 -7 -20 -16 -4 -12 1 -10 23 5 55 39 180 23
236 -30 16 -16 27 -10 11 6 -8 8 -19 15 -25 15 -6 0 -11 5 -11 10 0 6 -9 10
-20 10 -11 0 -20 5 -20 10 0 6 -32 10 -75 10 -48 0 -75 4 -75 11 0 7 27 10 84
8 46 -2 79 -1 73 3 -13 8 -136 8 -175 1z"/>
<path d="M3256 4305 c10 -8 23 -15 28 -15 6 0 1 7 -10 15 -10 8 -23 15 -28 15
-6 0 -1 -7 10 -15z"/>
<path d="M3302 4266 c7 -8 15 -12 17 -11 5 6 -10 25 -20 25 -5 0 -4 -6 3 -14z"/>
<path d="M3344 4234 c16 -15 22 -44 10 -44 -4 0 -15 10 -25 22 -11 11 -19 16
-19 10 0 -6 5 -14 11 -17 5 -4 14 -18 20 -32 8 -21 14 -24 51 -21 52 4 61 31
13 36 -24 2 -34 10 -42 32 -6 17 -16 30 -23 30 -7 0 -5 -6 4 -16z m86 -64 c0
-5 -18 -10 -40 -10 -22 0 -40 5 -40 10 0 6 18 10 40 10 22 0 40 -4 40 -10z"/>
<path d="M3800 3931 c0 -7 7 -19 15 -27 19 -20 19 -5 0 20 -9 11 -15 14 -15 7z"/>
<path d="M3780 3890 c6 -11 16 -20 23 -19 9 0 9 2 0 6 -7 2 -13 11 -13 19 0 8
-5 14 -10 14 -7 0 -7 -6 0 -20z"/>
<path d="M3842 3866 c7 -8 15 -12 17 -11 5 6 -10 25 -20 25 -5 0 -4 -6 3 -14z"/>
<path d="M3810 3851 c0 -10 19 -25 25 -20 1 2 -3 10 -11 17 -8 7 -14 8 -14 3z"/>
<path d="M3882 3836 c7 -8 15 -12 17 -11 5 6 -10 25 -20 25 -5 0 -4 -6 3 -14z"/>
<path d="M3850 3821 c0 -10 19 -25 25 -20 1 2 -3 10 -11 17 -8 7 -14 8 -14 3z"/>
<path d="M3912 3796 c7 -8 15 -12 17 -11 5 6 -10 25 -20 25 -5 0 -4 -6 3 -14z"/>
<path d="M3880 3781 c0 -10 19 -25 25 -20 1 2 -3 10 -11 17 -8 7 -14 8 -14 3z"/>
<path d="M3970 3680 c6 -11 16 -20 23 -19 9 0 9 2 0 6 -7 2 -13 11 -13 19 0 8
-5 14 -10 14 -7 0 -7 -6 0 -20z"/>
<path d="M4032 3656 c7 -8 15 -12 17 -11 5 6 -10 25 -20 25 -5 0 -4 -6 3 -14z"/>
<path d="M4000 3641 c0 -10 19 -25 25 -20 1 2 -3 10 -11 17 -8 7 -14 8 -14 3z"/>
<path d="M2843 4105 c-3 -9 -3 -18 -1 -21 3 -3 8 4 11 16 6 23 -1 27 -10 5z"/>
<path d="M564 3085 c-3 -8 -4 -20 -1 -27 3 -7 6 -3 6 9 1 12 7 24 14 26 9 4 9
6 -1 6 -7 1 -15 -6 -18 -14z"/>
<path d="M600 3058 c0 -9 -6 -19 -12 -21 -10 -4 -10 -6 0 -6 14 -1 28 26 18
36 -3 4 -6 -1 -6 -9z"/>
<path d="M514 3015 c-8 -19 -19 -35 -24 -35 -5 0 -19 -21 -30 -47 -11 -27 -25
-56 -30 -65 -6 -10 -14 -26 -18 -35 -5 -10 -14 -28 -20 -40 -7 -12 -15 -41
-18 -65 -4 -24 -11 -49 -17 -56 -5 -7 -7 -15 -3 -19 3 -3 6 -1 6 5 0 22 29 12
32 -10 2 -13 8 1 12 32 5 30 17 67 28 82 15 22 16 27 4 22 -9 -3 -16 -12 -16
-20 0 -8 -7 -14 -15 -14 -8 0 -15 7 -15 15 0 8 5 15 10 15 6 0 10 11 10 25 0
14 5 25 10 25 6 0 10 7 10 15 0 8 7 15 15 15 8 0 15 -4 15 -10 0 -5 -4 -10
-10 -10 -5 0 -10 -10 -10 -22 0 -23 0 -22 13 2 28 57 36 80 27 80 -6 0 -10 -7
-10 -15 0 -8 -5 -15 -11 -15 -13 0 -2 53 12 58 5 2 9 12 9 22 0 10 9 22 20 25
11 3 20 15 20 25 0 10 7 26 16 34 9 9 11 16 4 16 -6 0 -18 -16 -26 -35z m-114
-305 c0 -16 -4 -30 -10 -30 -5 0 -10 14 -10 30 0 17 5 30 10 30 6 0 10 -13 10
-30z"/>
<path d="M554 3016 c-16 -18 -23 -55 -12 -63 6 -3 8 -2 5 4 -3 5 1 22 9 38 16
31 15 40 -2 21z"/>
<path d="M511 2944 c0 -11 3 -14 6 -6 3 7 2 16 -1 19 -3 4 -6 -2 -5 -13z"/>
<path d="M353 2619 c1 -20 5 -25 19 -21 10 2 20 8 23 12 3 5 -4 6 -14 3 -13
-3 -21 1 -24 14 -3 11 -4 8 -4 -8z"/>
<path d="M353 2580 c-13 -5 -23 -15 -22 -22 0 -10 2 -10 6 0 2 6 11 12 18 12
9 0 15 -16 18 -47 3 -44 4 -43 4 10 0 31 -1 57 -1 56 -1 0 -11 -4 -23 -9z"/>
<path d="M332 2515 c0 -16 2 -22 5 -12 2 9 2 23 0 30 -3 6 -5 -1 -5 -18z"/>
<path d="M332 2455 c0 -16 2 -22 5 -12 2 9 2 23 0 30 -3 6 -5 -1 -5 -18z"/>
<path d="M373 2410 c0 -30 2 -43 4 -27 2 15 2 39 0 55 -2 15 -4 2 -4 -28z"/>
<path d="M332 2395 c0 -16 2 -22 5 -12 2 9 2 23 0 30 -3 6 -5 -1 -5 -18z"/>
<path d="M334 2331 c1 -14 9 -27 21 -31 18 -7 21 -4 22 24 0 20 -1 23 -4 9 -2
-13 -11 -23 -18 -23 -8 0 -16 10 -18 23 -4 21 -4 20 -3 -2z"/>
<path d="M352 2240 c0 -19 2 -27 5 -17 2 9 2 25 0 35 -3 9 -5 1 -5 -18z"/>
<path d="M512 1940 c0 -14 2 -19 5 -12 2 6 2 18 0 25 -3 6 -5 1 -5 -13z"/>
<path d="M539 1923 c-3 -21 4 -48 17 -60 18 -18 18 -12 0 23 -8 15 -13 31 -10
36 3 4 3 8 0 8 -3 0 -7 -3 -7 -7z"/>
<path d="M486 1903 c11 -10 25 -30 32 -45 6 -16 16 -28 22 -28 7 0 4 7 -4 16
-9 8 -16 23 -16 33 0 10 -12 23 -27 30 -28 11 -28 11 -7 -6z"/>
<path d="M4566 3093 c7 -4 14 -17 17 -28 5 -16 5 -15 4 4 -1 14 -9 26 -17 28
-10 3 -11 2 -4 -4z"/>
<path d="M4547 3039 c7 -7 15 -10 18 -7 3 3 -2 9 -12 12 -14 6 -15 5 -6 -5z"/>
<path d="M4614 3034 c9 -8 16 -23 16 -33 0 -10 12 -23 28 -30 27 -11 27 -11 6
6 -11 10 -25 30 -32 46 -6 15 -16 27 -22 27 -7 0 -4 -7 4 -16z"/>
<path d="M4580 3027 c0 -3 7 -17 14 -33 8 -15 12 -32 9 -37 -3 -6 -1 -7 5 -4
12 8 4 47 -15 65 -7 7 -13 11 -13 9z"/>
<path d="M4632 2940 c0 -14 2 -19 5 -12 2 6 2 18 0 25 -3 6 -5 1 -5 -13z"/>
<path d="M4787 2620 c-3 -11 -2 -22 2 -24 4 -3 8 6 9 20 2 29 -4 31 -11 4z"/>
<path d="M4773 2556 c0 -22 1 -24 4 -8 3 18 10 23 24 19 10 -3 17 -2 14 3 -3
4 -13 10 -23 12 -14 4 -18 -1 -19 -26z"/>
<path d="M4812 2433 c-2 -99 -5 -123 -16 -123 -8 0 -17 8 -19 18 -3 9 -4 5 -4
-9 1 -20 5 -25 20 -21 27 7 28 15 24 143 l-3 114 -2 -122z"/>
<path d="M4772 2495 c0 -16 2 -22 5 -12 2 9 2 23 0 30 -3 6 -5 -1 -5 -18z"/>
<path d="M4772 2435 c0 -16 2 -22 5 -12 2 9 2 23 0 30 -3 6 -5 -1 -5 -18z"/>
<path d="M4772 2375 c0 -16 2 -22 5 -12 2 9 2 23 0 30 -3 6 -5 -1 -5 -18z"/>
<path d="M4632 1940 c0 -14 2 -19 5 -12 2 6 2 18 0 25 -3 6 -5 1 -5 -13z"/>
<path d="M4603 1908 c-1 -11 -10 -29 -19 -39 -19 -21 -10 -27 10 -6 15 15 27
55 17 61 -4 3 -8 -5 -8 -16z"/>
<path d="M2264 2576 c-3 -8 -4 -23 -1 -33 3 -12 5 -8 6 10 2 39 29 35 34 -5
l5 -33 -2 35 c-1 37 -31 56 -42 26z"/>
<path d="M2263 2465 c0 -33 2 -45 4 -27 2 18 2 45 0 60 -2 15 -4 0 -4 -33z"/>
<path d="M2301 2494 c0 -11 3 -14 6 -6 3 7 2 16 -1 19 -3 4 -6 -2 -5 -13z"/>
<path d="M2301 2454 c0 -11 3 -14 6 -6 3 7 2 16 -1 19 -3 4 -6 -2 -5 -13z"/>
<path d="M2301 2414 c0 -11 3 -14 6 -6 3 7 2 16 -1 19 -3 4 -6 -2 -5 -13z"/>
<path d="M2263 2348 c0 -52 2 -56 21 -49 11 5 21 13 22 20 1 6 0 7 -3 1 -2 -5
-11 -10 -18 -10 -9 0 -15 16 -18 48 -4 44 -4 44 -4 -10z"/>
<path d="M2302 2365 c0 -16 2 -22 5 -12 2 9 2 23 0 30 -3 6 -5 -1 -5 -18z"/>
<path d="M2193 1983 c-7 -2 -13 -11 -13 -19 0 -8 -4 -14 -9 -14 -10 0 -21 -49
-12 -55 4 -2 8 5 8 16 1 10 11 33 23 49 12 17 20 30 18 29 -2 0 -9 -3 -15 -6z"/>
<path d="M2132 1880 c0 -14 2 -19 5 -12 2 6 2 18 0 25 -3 6 -5 1 -5 -13z"/>
<path d="M2844 2576 c-3 -8 -4 -23 -1 -33 3 -12 5 -8 6 10 1 27 24 38 34 17 3
-6 4 -5 3 2 -4 19 -35 22 -42 4z"/>
<path d="M2880 2430 c0 -73 -4 -120 -10 -120 -5 0 -10 18 -10 39 0 22 -5 43
-12 47 -6 4 -9 3 -5 -2 3 -5 6 -29 8 -54 1 -25 4 -49 7 -53 2 -4 5 -37 8 -73
3 -45 11 -75 24 -94 11 -15 20 -35 20 -43 0 -14 7 -29 44 -102 5 -11 16 -33
24 -48 8 -15 19 -26 25 -24 19 6 11 63 -12 96 -12 16 -24 44 -28 63 -9 49 -39
87 -63 81 -17 -5 -20 0 -20 26 0 37 29 45 31 9 1 -18 2 -19 6 -5 3 10 0 23 -5
30 -6 7 -11 28 -13 47 -2 19 -5 39 -7 43 -2 5 -3 65 -3 133 1 68 0 124 -3 124
-4 0 -6 -54 -6 -120z m5 -140 c3 -5 2 -10 -4 -10 -5 0 -13 5 -16 10 -3 6 -2
10 4 10 5 0 13 -4 16 -10z m5 -50 c0 -16 -4 -30 -10 -30 -5 0 -10 14 -10 30 0
17 5 30 10 30 6 0 10 -13 10 -30z m40 -120 c0 -5 -7 -10 -15 -10 -8 0 -15 5
-15 10 0 6 7 10 15 10 8 0 15 -4 15 -10z m23 -57 c4 -20 4 -39 2 -42 -9 -8
-34 33 -35 57 0 37 27 25 33 -15z m27 -67 c0 -8 4 -16 10 -18 14 -5 25 -68 11
-68 -6 0 -11 9 -11 20 0 11 -4 20 -10 20 -5 0 -10 7 -10 15 0 8 -4 15 -10 15
-5 0 -10 7 -10 15 0 8 7 15 15 15 8 0 15 -6 15 -14z"/>
<path d="M2842 2500 c0 -14 2 -19 5 -12 2 6 2 18 0 25 -3 6 -5 1 -5 -13z"/>
<path d="M2842 2440 c0 -19 2 -27 5 -17 2 9 2 25 0 35 -3 9 -5 1 -5 -18z"/>
<path d="M3104 1778 c1 -12 8 -23 16 -25 13 -4 13 -3 0 6 -18 12 -7 26 16 17
9 -4 14 -12 10 -22 -3 -8 -2 -12 3 -9 6 3 9 14 8 25 -1 10 -3 17 -5 15 -2 -2
-14 0 -27 5 -19 7 -22 5 -21 -12z"/>
<path d="M2025 1791 c-11 -5 -24 -6 -29 -3 -5 3 -6 0 -3 -6 4 -5 16 -8 27 -5
20 5 28 -11 10 -20 -6 -3 -5 -4 2 -3 7 1 14 12 14 24 1 12 1 22 0 21 0 0 -10
-4 -21 -8z"/>
<path d="M1979 1758 c-1 -2 -3 -12 -4 -24 -2 -16 3 -21 18 -20 11 1 22 8 24
16 4 13 3 13 -6 0 -8 -12 -13 -12 -23 -2 -10 10 -10 15 2 22 10 7 11 10 3 10
-7 0 -14 -1 -14 -2z"/>
<path d="M702 1723 c18 -5 34 -40 23 -51 -3 -4 -10 0 -15 8 -6 9 -10 10 -10 3
0 -18 20 -27 33 -14 15 15 -8 61 -30 60 -16 -1 -16 -2 -1 -6z"/>
<path d="M4438 1723 c7 -3 16 -2 19 1 4 3 -2 6 -13 5 -11 0 -14 -3 -6 -6z"/>
<path d="M3689 1477 c4 -12 13 -22 20 -23 6 -1 7 0 1 3 -5 2 -10 11 -10 18 0
10 17 15 58 18 l57 3 -67 1 c-63 0 -66 -1 -59 -20z"/>
<path d="M3848 1493 c12 -2 32 -2 45 0 12 2 2 4 -23 4 -25 0 -35 -2 -22 -4z"/>
<path d="M3933 1494 c19 -6 23 -29 7 -37 -6 -3 -5 -4 2 -3 21 4 15 40 -7 43
-16 1 -16 1 -2 -3z"/>
<path d="M3743 1453 c9 -2 23 -2 30 0 6 3 -1 5 -18 5 -16 0 -22 -2 -12 -5z"/>
<path d="M3803 1453 c9 -2 23 -2 30 0 6 3 -1 5 -18 5 -16 0 -22 -2 -12 -5z"/>
<path d="M3858 1453 c7 -3 16 -2 19 1 4 3 -2 6 -13 5 -11 0 -14 -3 -6 -6z"/>
<path d="M3898 1453 c7 -3 16 -2 19 1 4 3 -2 6 -13 5 -11 0 -14 -3 -6 -6z"/>
<path d="M1863 1668 c-35 -21 -43 -45 -19 -54 8 -3 25 2 38 10 14 9 27 14 30
11 3 -3 5 7 4 21 -1 35 -13 37 -53 12z m47 -4 c0 -9 -9 -18 -20 -21 -11 -3
-20 -9 -20 -14 0 -5 -7 -9 -15 -9 -25 0 -17 29 10 36 14 3 25 10 25 15 0 5 5
9 10 9 6 0 10 -7 10 -16z"/>
<path d="M793 1624 c-7 -19 27 -49 66 -59 14 -4 37 -15 52 -26 15 -10 36 -19
46 -19 10 0 24 -5 31 -12 9 -9 15 -9 23 -1 22 22 -2 46 -76 73 -11 4 -32 12
-47 19 -18 6 -28 7 -28 1 0 -6 7 -10 15 -10 8 0 15 -5 15 -11 0 -13 -53 -2
-58 12 -2 5 -10 9 -18 9 -23 0 -16 28 9 33 l22 4 -23 2 c-13 0 -25 -6 -29 -15z
m137 -54 c0 -5 11 -10 25 -10 16 0 25 -6 25 -15 0 -9 -9 -15 -25 -15 -14 0
-25 5 -25 10 0 6 -7 10 -15 10 -8 0 -15 7 -15 15 0 8 7 15 15 15 8 0 15 -4 15
-10z m80 -45 c0 -8 -4 -15 -10 -15 -5 0 -10 7 -10 15 0 8 5 15 10 15 6 0 10
-7 10 -15z"/>
<path d="M1035 1520 c-9 -15 3 -29 24 -27 11 1 17 7 14 14 -3 7 -2 13 1 13 4
0 11 -11 16 -25 7 -19 16 -25 37 -24 l28 2 -27 4 c-35 5 -38 33 -4 33 13 0 27
-5 29 -10 3 -6 4 -5 3 2 -2 7 -16 14 -32 15 -16 0 -31 2 -34 3 -24 8 -50 8
-55 0z m25 -10 c0 -5 -4 -10 -10 -10 -5 0 -10 5 -10 10 0 6 5 10 10 10 6 0 10
-4 10 -10z"/>
<path d="M1805 1598 c4 -11 2 -18 -4 -18 -6 0 -11 5 -11 10 0 14 -26 12 -63
-4 -18 -8 -40 -16 -49 -20 -11 -3 -18 -15 -18 -31 0 -16 -6 -25 -15 -25 -18 0
-20 26 -2 33 9 4 9 6 -1 6 -18 1 -27 -28 -13 -42 9 -9 16 -9 31 1 11 6 25 12
31 12 6 0 23 9 38 19 15 11 39 23 54 26 33 9 43 23 28 38 -9 9 -11 8 -6 -5z
m-25 -18 c0 -5 -7 -10 -15 -10 -8 0 -15 5 -15 10 0 6 7 10 15 10 8 0 15 -4 15
-10z m-40 -11 c0 -16 -31 -38 -52 -39 -10 0 -18 7 -18 16 0 12 7 15 25 12 17
-4 25 -1 25 8 0 8 5 14 10 14 6 0 10 -5 10 -11z"/>
<path d="M1484 1505 c-4 -9 -2 -21 4 -27 15 -15 44 -1 40 19 -4 23 -36 29 -44
8z m36 -10 c0 -8 -7 -15 -15 -15 -8 0 -15 7 -15 15 0 8 7 15 15 15 8 0 15 -7
15 -15z"/>
<path d="M3995 1509 c-4 -6 -4 -13 -1 -16 3 -4 6 -1 6 5 0 7 5 12 11 12 6 0 8
-7 4 -17 -5 -14 -3 -15 6 -6 12 12 5 33 -11 33 -5 0 -12 -5 -15 -11z"/>
<path d="M1254 1485 c-7 -17 3 -35 19 -34 9 0 9 2 0 6 -7 2 -13 11 -13 18 0
10 19 15 68 18 l67 3 -68 2 c-51 2 -69 -2 -73 -13z"/>
<path d="M1407 1482 c4 -17 0 -21 -29 -25 l-33 -4 33 -1 c35 -2 54 20 34 40
-8 8 -9 5 -5 -10z"/>
<path d="M1303 1453 c9 -2 23 -2 30 0 6 3 -1 5 -18 5 -16 0 -22 -2 -12 -5z"/>
</g>
</svg>
